<svg width="17" height="17" viewBox="0 0 17 17" fill="none" xmlns="http://www.w3.org/2000/svg">
<path opacity="0.7" d="M16.8367 0.750047C16.8367 0.335834 16.5009 4.77166e-05 16.0867 4.71898e-05L9.33668 4.8117e-05C8.92247 4.74427e-05 8.58668 0.335834 8.58668 0.750048C8.58668 1.16426 8.92247 1.50005 9.33668 1.50005L15.3367 1.50005L15.3367 7.50005C15.3367 7.91426 15.6725 8.25005 16.0867 8.25005C16.5009 8.25005 16.8367 7.91426 16.8367 7.50005L16.8367 0.750047ZM0.530331 16.3064L1.06066 16.8367L16.617 1.28038L16.0867 0.750048L15.5563 0.219717L5.81145e-07 15.7761L0.530331 16.3064Z" fill="#2F2F2F"/>
</svg>
