<svg width="28" height="28" viewBox="0 0 28 28" fill="none" xmlns="http://www.w3.org/2000/svg">
<path fill-rule="evenodd" clip-rule="evenodd" d="M14.3008 27.9201C11.553 27.9201 10.276 27.5172 8.05633 25.9057C6.65232 27.7187 2.2063 29.1355 2.01241 26.7114C2.01241 24.8917 1.61126 23.354 1.15663 21.6753C0.615089 19.6072 0 17.304 0 13.9668C0 5.99631 6.51192 0 14.2273 0C21.9493 0 27.9999 6.29176 27.9999 14.0406C28.0258 21.6697 21.8968 27.8794 14.3008 27.9201ZM14.4145 6.88938C10.6571 6.69465 7.72872 9.3067 7.08021 13.4027C6.54535 16.7937 7.49472 20.9233 8.3037 21.1382C8.69147 21.2322 9.66759 20.4398 10.276 19.8288C11.282 20.5268 12.4535 20.946 13.6724 21.0442C17.5656 21.2322 20.8923 18.2554 21.1537 14.3495C21.3059 10.4353 18.3083 7.12008 14.4145 6.89609L14.4145 6.88938Z" fill="#141414"/>
</svg>
