<svg width="45" height="28" viewBox="0 0 45 28" fill="none" xmlns="http://www.w3.org/2000/svg">
<path fill-rule="evenodd" clip-rule="evenodd" d="M43.9407 1.94444C44.2744 0.847778 43.9407 0.0505552 42.4641 0.0505552H37.5544C36.316 0.0505552 35.7441 0.748611 35.4104 1.49528C35.4104 1.49528 32.8847 7.87306 29.3579 12.0079C28.2141 13.2037 27.69 13.6024 27.0703 13.6024C26.7366 13.6024 26.3072 13.2037 26.3072 12.1081V1.89292C26.3072 0.597917 25.9266 0 24.8775 0H17.1563C16.3931 0 15.9169 0.597917 15.9169 1.19583C15.9169 2.44125 17.6803 2.74069 17.8706 6.22806V13.8056C17.8706 15.4496 17.5894 15.75 16.965 15.75C15.2972 15.75 11.2463 9.32264 8.81626 1.99889C8.34376 0.548333 7.86376 0 6.62438 0H1.66781C0.238125 0 0 0.697083 0 1.44472C0 2.79028 1.66781 9.5657 7.76814 18.5335C11.8191 24.6585 17.5856 27.9504 22.7803 27.9504C25.9266 27.9504 26.3072 27.2028 26.3072 25.9574V21.3237C26.3072 19.8294 26.5932 19.5806 27.5944 19.5806C28.3088 19.5806 29.596 19.9782 32.5032 22.9182C35.8388 26.4056 36.4107 28 38.2697 28H43.1785C44.6082 28 45.2757 27.2524 44.8941 25.8076C44.4657 24.3629 42.8447 22.2707 40.7476 19.7799C39.6038 18.3857 37.8882 16.8408 37.3641 16.0932C36.6497 15.0967 36.84 14.6981 37.3641 13.8017C37.3163 13.8017 43.3219 4.93306 43.9407 1.94056" fill="#2F2F2F"/>
</svg>
